<svg width="294" height="249" viewBox="0 0 294 249" fill="none" xmlns="http://www.w3.org/2000/svg">
<path d="M254.53 242.281C242.032 254.812 227.18 264.75 210.829 271.524C194.478 278.297 176.949 281.773 159.25 281.75C84.8313 281.75 24.5 221.419 24.5 147C24.5 72.5813 84.8313 12.2501 159.25 12.2501C176.949 12.2276 194.478 15.7029 210.829 22.4764C227.18 29.2499 242.032 39.188 254.53 51.7196" stroke="#FA1E51" stroke-opacity="0.2" stroke-width="22.25" stroke-linecap="round" stroke-linejoin="round"/>
<path d="M219.888 207.638C211.933 215.612 202.481 221.936 192.075 226.245C181.669 230.555 170.513 232.766 159.25 232.75C111.892 232.75 73.5 194.359 73.5 147" stroke="#FA1E51" stroke-opacity="0.2" stroke-width="22.25" stroke-linecap="round"/>
<path d="M159.25 147H110.25" stroke="#FA1E51" stroke-opacity="0.2" stroke-width="22.25" stroke-linecap="round" stroke-linejoin="round"/>
<path fill-rule="evenodd" clip-rule="evenodd" d="M233.993 112.733C237.71 120.47 231.433 128.625 222.849 128.625C217.324 128.625 212.504 125.1 209.879 120.239C198.721 99.5703 176.327 85.4587 150.52 85.4587C124.713 85.4587 102.319 99.5703 91.1605 120.239C88.5361 125.1 83.7155 128.625 78.1911 128.625C69.607 128.625 63.3296 120.47 67.0465 112.733C81.649 82.3329 113.535 61.25 150.52 61.25C187.505 61.25 219.391 82.3329 233.993 112.733Z" fill="#FA1E51" fill-opacity="0.2"/>
</svg>
