<svg width="131" height="48" viewBox="0 0 131 48" fill="none" xmlns="http://www.w3.org/2000/svg">
<path d="M33.642 27.346V20.593C33.642 18.4565 34.7103 17.3883 36.8468 17.3883H41.9401L43.2182 18.3802V19.8682H36.9613C36.5798 19.8682 36.389 20.0589 36.389 20.4404V27.4986C36.389 27.8801 36.5798 28.0709 36.9613 28.0709H43.2182V29.5588L41.9401 30.5508H36.8468C34.7103 30.5508 33.642 29.4825 33.642 27.346ZM48.8652 30.5508C46.805 30.5508 45.7749 29.5397 45.7749 27.5177C45.7749 25.4956 46.805 24.4846 48.8652 24.4846H51.4977V23.3782C51.4977 22.9712 51.2943 22.7677 50.8873 22.7677H46.8432V21.337L47.9877 20.4786H51.0399C53.1001 20.4786 54.1302 21.5087 54.1302 23.5689V30.5508H48.8652ZM48.4074 27.6512C48.4074 28.0582 48.6109 28.2616 49.0178 28.2616H51.4977V26.5066H49.0178C48.6109 26.5066 48.4074 26.7101 48.4074 27.1171V27.6512ZM57.2168 29.6924V28.2616H61.6043C62.0367 28.2616 62.2529 28.02 62.2529 27.5368C62.2529 27.0408 62.0749 26.761 61.7188 26.6974L59.6586 26.354C58.0308 26.0743 57.2168 25.1332 57.2168 23.5308C57.2168 21.496 58.247 20.4786 60.3072 20.4786H63.264L64.4085 21.337V22.7677H60.4598C60.0274 22.7677 59.8112 23.0094 59.8112 23.4926C59.8112 24.0013 60.0083 24.2875 60.4026 24.351L62.4437 24.6944C64.0588 24.9615 64.8664 25.8898 64.8664 27.4795C64.8664 29.527 63.8299 30.5508 61.757 30.5508H58.3614L57.2168 29.6924ZM67.934 27.4604V17.3883H70.5665V20.4786H73.8476V22.7677H70.5665V27.6512C70.5665 28.0582 70.77 28.2616 71.177 28.2616H74.0384V29.6924L72.8938 30.5508H71.0244C68.9642 30.5508 67.934 29.5207 67.934 27.4604ZM76.7058 27.4604V23.5689C76.7058 21.5087 77.7359 20.4786 79.7961 20.4786H82.276C84.3362 20.4786 85.3663 21.5087 85.3663 23.5689V26.4876H79.3383V27.6512C79.3383 28.0582 79.5418 28.2616 79.9487 28.2616H84.9848V29.6924L83.8403 30.5508H79.7961C77.7359 30.5508 76.7058 29.5207 76.7058 27.4604ZM79.3383 24.4655H82.7338V23.3782C82.7338 22.9712 82.5304 22.7677 82.1234 22.7677H79.9487C79.5418 22.7677 79.3383 22.9712 79.3383 23.3782V24.4655ZM88.648 26.8882V16.4345H91.2805V27.1552C91.2805 27.9437 91.6875 28.3825 92.5014 28.4715V30.7415C89.9325 30.7415 88.648 29.4571 88.648 26.8882ZM95.3165 26.8882V16.4345H97.949V27.1552C97.949 27.9437 98.3559 28.3825 99.1699 28.4715V30.7415C96.6009 30.7415 95.3165 29.4571 95.3165 26.8882ZM101.985 27.4604V20.4786H104.617V27.6512C104.617 28.0582 104.821 28.2616 105.228 28.2616H108.013V20.4786H110.645V30.5508H105.075C103.015 30.5508 101.985 29.5207 101.985 27.4604ZM114.151 30.5508V20.4786H125.635C127.695 20.4786 128.725 21.5087 128.725 23.5689V30.5508H126.092V23.3782C126.092 22.9712 125.889 22.7677 125.482 22.7677H122.754V30.5508H120.122V22.7677H116.783V30.5508H114.151Z" fill="#FA1E51"/>
<path d="M94.9317 40.5156V35.0397H96.8461C97.2276 35.0397 97.5422 35.1056 97.7899 35.2375C98.0377 35.3677 98.2222 35.5433 98.3434 35.7643C98.4646 35.9835 98.5252 36.2269 98.5252 36.4942C98.5252 36.7295 98.4834 36.9238 98.3996 37.0771C98.3176 37.2304 98.2088 37.3516 98.0734 37.4408C97.9397 37.5299 97.7944 37.5958 97.6375 37.6386V37.6921C97.8051 37.7028 97.9735 37.7616 98.1429 37.8686C98.3122 37.9755 98.4539 38.1288 98.568 38.3285C98.6821 38.5281 98.7391 38.7723 98.7391 39.0611C98.7391 39.3356 98.6768 39.5825 98.552 39.8017C98.4272 40.021 98.2302 40.1948 97.9611 40.3231C97.6919 40.4515 97.3416 40.5156 96.9103 40.5156H94.9317ZM95.5948 39.9274H96.9103C97.3434 39.9274 97.6509 39.8436 97.8327 39.6761C98.0163 39.5067 98.1081 39.3017 98.1081 39.0611C98.1081 38.8757 98.0609 38.7046 97.9664 38.5477C97.8719 38.3891 97.7374 38.2625 97.5627 38.168C97.388 38.0718 97.1812 38.0236 96.9424 38.0236H95.5948V39.9274ZM95.5948 37.4461H96.8247C97.0243 37.4461 97.2044 37.4069 97.3648 37.3285C97.527 37.25 97.6554 37.1395 97.7498 36.9969C97.8461 36.8543 97.8942 36.6867 97.8942 36.4942C97.8942 36.2536 97.8104 36.0495 97.6429 35.8819C97.4753 35.7126 97.2097 35.6279 96.8461 35.6279H95.5948V37.4461ZM100.15 42.0557C100.043 42.0557 99.9473 42.0468 99.8635 42.029C99.7797 42.013 99.7218 41.9969 99.6897 41.9809L99.8501 41.4247C100.003 41.4639 100.139 41.4782 100.257 41.4675C100.374 41.4568 100.478 41.4042 100.569 41.3097C100.662 41.2171 100.747 41.0664 100.823 40.8579L100.941 40.537L99.4223 36.4087H100.107L101.24 39.6814H101.283L102.417 36.4087H103.101L101.358 41.1146C101.28 41.3267 101.183 41.5023 101.067 41.6413C100.951 41.7821 100.816 41.8864 100.663 41.9541C100.511 42.0219 100.34 42.0557 100.15 42.0557ZM106.138 40.5156V35.0397H109.442V35.6279H106.801V37.4782H109.271V38.0664H106.801V39.9274H109.485V40.5156H106.138ZM112.338 36.4087V36.9434H110.21V36.4087H112.338ZM110.83 35.4247H111.461V39.3392C111.461 39.5174 111.487 39.6511 111.539 39.7402C111.592 39.8276 111.66 39.8864 111.742 39.9167C111.826 39.9452 111.914 39.9595 112.007 39.9595C112.076 39.9595 112.133 39.9559 112.178 39.9488C112.222 39.9399 112.258 39.9327 112.285 39.9274L112.413 40.4942C112.37 40.5103 112.31 40.5263 112.234 40.5424C112.157 40.5602 112.06 40.5691 111.942 40.5691C111.764 40.5691 111.589 40.5308 111.418 40.4541C111.249 40.3775 111.108 40.2607 110.996 40.1039C110.885 39.947 110.83 39.7491 110.83 39.5103V35.4247ZM114.007 38.045V40.5156H113.376V35.0397H114.007V37.0504H114.06C114.156 36.8383 114.301 36.6698 114.493 36.545C114.687 36.4185 114.946 36.3552 115.269 36.3552C115.548 36.3552 115.794 36.4113 116.004 36.5236C116.214 36.6342 116.377 36.8044 116.493 37.0343C116.611 37.2625 116.67 37.5531 116.67 37.906V40.5156H116.039V37.9488C116.039 37.6226 115.954 37.3703 115.785 37.1921C115.617 37.0121 115.384 36.922 115.087 36.922C114.88 36.922 114.695 36.9657 114.531 37.0531C114.368 37.1404 114.24 37.2679 114.146 37.4354C114.053 37.603 114.007 37.8062 114.007 38.045ZM118.455 38.045V40.5156H117.824V36.4087H118.434V37.0504H118.487C118.583 36.8418 118.73 36.6743 118.926 36.5477C119.122 36.4194 119.375 36.3552 119.685 36.3552C119.963 36.3552 120.206 36.4122 120.415 36.5263C120.624 36.6386 120.786 36.8097 120.902 37.0397C121.017 37.2679 121.075 37.5566 121.075 37.906V40.5156H120.444V37.9488C120.444 37.6261 120.361 37.3748 120.193 37.1948C120.025 37.013 119.796 36.922 119.503 36.922C119.302 36.922 119.122 36.9657 118.963 37.0531C118.806 37.1404 118.682 37.2679 118.591 37.4354C118.501 37.603 118.455 37.8062 118.455 38.045ZM123.897 40.6012C123.526 40.6012 123.201 40.513 122.921 40.3365C122.643 40.16 122.425 39.9131 122.269 39.5958C122.113 39.2785 122.036 38.9078 122.036 38.4835C122.036 38.0557 122.113 37.6823 122.269 37.3632C122.425 37.0441 122.643 36.7964 122.921 36.6199C123.201 36.4434 123.526 36.3552 123.897 36.3552C124.268 36.3552 124.592 36.4434 124.87 36.6199C125.15 36.7964 125.367 37.0441 125.523 37.3632C125.679 37.6823 125.758 38.0557 125.758 38.4835C125.758 38.9078 125.679 39.2785 125.523 39.5958C125.367 39.9131 125.15 40.16 124.87 40.3365C124.592 40.513 124.268 40.6012 123.897 40.6012ZM123.897 40.0343C124.179 40.0343 124.41 39.9621 124.592 39.8178C124.774 39.6734 124.908 39.4835 124.996 39.2482C125.083 39.013 125.127 38.758 125.127 38.4835C125.127 38.209 125.083 37.9532 124.996 37.7162C124.908 37.4791 124.774 37.2875 124.592 37.1413C124.41 36.9951 124.179 36.922 123.897 36.922C123.615 36.922 123.384 36.9951 123.202 37.1413C123.02 37.2875 122.885 37.4791 122.798 37.7162C122.711 37.9532 122.667 38.209 122.667 38.4835C122.667 38.758 122.711 39.013 122.798 39.2482C122.885 39.4835 123.02 39.6734 123.202 39.8178C123.384 39.9621 123.615 40.0343 123.897 40.0343ZM129.63 37.3285L129.063 37.4889C129.028 37.3944 128.975 37.3026 128.906 37.2135C128.838 37.1226 128.745 37.0477 128.628 36.9889C128.51 36.9301 128.359 36.9007 128.176 36.9007C127.924 36.9007 127.715 36.9586 127.547 37.0744C127.382 37.1885 127.299 37.3338 127.299 37.5103C127.299 37.6671 127.356 37.791 127.47 37.8819C127.584 37.9728 127.762 38.0486 128.005 38.1092L128.614 38.2589C128.981 38.3481 129.255 38.4844 129.435 38.668C129.615 38.8498 129.705 39.0843 129.705 39.3712C129.705 39.6065 129.637 39.8169 129.502 40.0023C129.368 40.1876 129.181 40.3338 128.94 40.4408C128.7 40.5477 128.42 40.6012 128.101 40.6012C127.682 40.6012 127.335 40.5103 127.061 40.3285C126.786 40.1466 126.612 39.881 126.539 39.5317L127.138 39.3819C127.195 39.603 127.303 39.7687 127.462 39.8793C127.622 39.9898 127.832 40.045 128.09 40.045C128.384 40.045 128.618 39.9826 128.791 39.8579C128.965 39.7313 129.053 39.5798 129.053 39.4033C129.053 39.2607 129.003 39.1413 128.903 39.045C128.803 38.947 128.65 38.8739 128.443 38.8258L127.759 38.6654C127.382 38.5762 127.106 38.4381 126.93 38.2509C126.755 38.062 126.668 37.8258 126.668 37.5424C126.668 37.3106 126.733 37.1056 126.863 36.9274C126.995 36.7491 127.174 36.6092 127.4 36.5076C127.628 36.406 127.887 36.3552 128.176 36.3552C128.582 36.3552 128.901 36.4443 129.133 36.6226C129.366 36.8008 129.532 37.0361 129.63 37.3285Z" fill="#777575"/>
<path d="M35.9591 9.91636C36.7102 9.31789 36.8389 8.21809 36.1802 7.51923C33.6479 4.83256 30.4423 2.85512 26.8823 1.80186C22.7649 0.583652 18.3725 0.660613 14.3002 2.02231C10.228 3.38401 6.67273 5.96461 4.11621 9.41449C1.55969 12.8644 0.125465 17.0167 0.0078565 21.309C-0.109752 25.6013 1.09494 29.826 3.45871 33.4107C5.82249 36.9953 9.23107 39.7668 13.2226 41.3494C17.2142 42.9321 21.5958 43.2494 25.7738 42.2585C29.3861 41.4018 32.6952 39.6028 35.3708 37.0589C36.0668 36.3971 35.9985 35.2919 35.2813 34.6532C34.5641 34.0145 33.4703 34.0856 32.7635 34.7357C30.5703 36.753 27.8894 38.1825 24.9712 38.8746C21.4871 39.7009 17.8332 39.4363 14.5045 38.1165C11.1758 36.7967 8.33331 34.4855 6.3621 31.4961C4.39089 28.5068 3.38626 24.9837 3.48434 21.4043C3.58242 17.8248 4.77845 14.3621 6.9104 11.4851C9.04235 8.60818 12.0072 6.45614 15.4031 5.32059C18.7991 4.18503 22.462 4.12085 25.8957 5.13675C28.7716 5.98762 31.3702 7.56172 33.4496 9.69611C34.1198 10.384 35.208 10.5148 35.9591 9.91636Z" fill="#FA1E51"/>
<path d="M30.4353 13.8845C31.1625 13.3418 31.2888 12.3415 30.6258 11.7305C29.0096 10.2424 27.0224 9.14168 24.8331 8.53446C22.1036 7.77773 19.1917 7.82562 16.492 8.67148C13.7923 9.51735 11.4354 11.1204 9.74071 13.2631C8.19674 15.2151 7.2704 17.5291 7.05859 19.9413C7.14546 20.8659 7.05859 21.6471 8.65168 21.6471C10.2448 21.6471 10.0253 21.093 10.4406 19.9413C10.6419 18.2075 11.3316 16.5499 12.4457 15.1414C13.7294 13.518 15.5148 12.304 17.5597 11.6634C19.6046 11.0225 21.8102 10.9863 23.8778 11.5597C25.4047 11.9829 26.8015 12.7234 27.969 13.7179C28.6569 14.3039 29.7083 14.4276 30.4353 13.8845Z" fill="#FA1E51"/>
<path d="M30.4353 29.8811C31.1625 30.4238 31.2888 31.4242 30.6258 32.0351C29.0096 33.5232 27.0224 34.6239 24.8331 35.2312C22.1036 35.9879 19.1917 35.94 16.492 35.0941C13.7923 34.2483 11.4354 32.6453 9.74071 30.5025C8.19674 28.5505 7.2704 26.2365 7.05859 23.8243C7.14546 22.8997 7.05859 22.1186 8.65168 22.1186C10.2448 22.1186 10.0253 22.6726 10.4406 23.8243C10.6419 25.5581 11.3316 27.2157 12.4457 28.6242C13.7294 30.2476 15.5148 31.4616 17.5597 32.1022C19.6046 32.7431 21.8102 32.7794 23.8778 32.2059C25.4047 31.7827 26.8015 31.0423 27.969 30.0477C28.6569 29.4617 29.7083 29.338 30.4353 29.8811Z" fill="#FA1E51"/>
<rect x="12.7061" y="20.707" width="11.7647" height="2.35294" rx="1.17647" fill="#FA1E51"/>
</svg>
