<svg width="48" height="48" viewBox="0 0 48 48" fill="none" xmlns="http://www.w3.org/2000/svg">
<path d="M41.556 39.556C39.5154 41.602 37.0907 43.2245 34.4211 44.3304C31.7515 45.4363 28.8896 46.0037 26 46C13.85 46 4 36.15 4 24C4 11.85 13.85 1.99998 26 1.99998C28.8896 1.99631 31.7515 2.56371 34.4211 3.66959C37.0907 4.77547 39.5154 6.39801 41.556 8.44398" stroke="#FA1E51" stroke-width="4" stroke-linecap="round" stroke-linejoin="round"/>
<path d="M36.8894 32.6017C35.7734 34.0632 34.3796 35.2898 32.788 36.211C31.1965 37.1321 29.4385 37.7296 27.6153 37.9692C19.9506 38.987 12.912 33.5987 11.8942 25.9339" stroke="#FA1E51" stroke-width="4" stroke-linecap="round"/>
<path d="M26 24H18" stroke="#FA1E51" stroke-width="4" stroke-linecap="round" stroke-linejoin="round"/>
<path fill-rule="evenodd" clip-rule="evenodd" d="M38.203 18.4053C38.8099 19.6686 37.785 21 36.3835 21V21C35.4815 21 34.6945 20.4245 34.266 19.6308C32.4443 16.2564 28.7881 13.9524 24.5747 13.9524C20.3613 13.9524 16.7051 16.2564 14.8834 19.6308C14.4549 20.4245 13.6679 21 12.7659 21V21C11.3645 21 10.3396 19.6686 10.9464 18.4053C13.3305 13.4421 18.5364 10 24.5747 10C30.6131 10 35.8189 13.4421 38.203 18.4053Z" fill="#FA1E51"/>
</svg>
